# xmcd
# 
# Track frame offsets:
#     150
#     20553
#     39373
#     57413
#     76513
#     95825
#     113663
#     132533
#     151793
#     172040
#     190343
# 
# Disc length: 2810
# 
# Revision: 0
# Processed by: cddbd v1.5.2PL0 Copyright (c) Steve Scherf et al.
# Submitted via: BonkEnc v1.0
# 
DISCID=890af80b
DTITLE=Khadja Nin - Sambolera
DYEAR=0
DGENRE=
TTITLE0=Sambolera mayi son
TTITLE1=Sina Mali, Sina Deni
TTITLE2=Wale watu
TTITLE3=Mama Lusiya
TTITLE4=Save us
TTITLE5=Mwana wa mama
TTITLE6=Leo leya
TTITLE7=M'barik fall
TTITLE8=Sous le charme
TTITLE9=Rosy
TTITLE10=Bwana C
EXTD=
EXTT0=
EXTT1=
EXTT2=
EXTT3=
EXTT4=
EXTT5=
EXTT6=
EXTT7=
EXTT8=
EXTT9=
EXTT10=
PLAYORDER=
